:SAMPLES-PER-SECOND 30
:FULLY-SPECIFIED
:DEGREES
1145
root  -39.7013 30.324 -6.02521 -138.762 81.2955 -131.063
RightUpLeg  -11.6815 4.06703 -19.6633
RightLeg  66.1902 6.53453 15.261
RightFoot  -41.939 4.76117 18.3317
RightToes  -8.3237e-009 0 -3.6325e-017
Spine  31.6792 -0.580173 -10.4218
Spine1  4.64717 -0.372508 -16.9199
HEad  -32.2295 -37.1354 6.92281
LeftShoulder1  0.623736 0.441141 -13.6424
LeftArm  -45.5272 -16.8661 -5.73049
LeftForeArm  31.8953 -52.5871 -12.0921
LeftHand  -0.0829434 3.39571 3.89261
RightShoulder  0.268357 -2.47319 20.1348
RightArm  23.2587 20.5408 47.2519
RightForeArm  19.1952 54.492 14.2312
RightHand  -0.471003 5.86083 -5.04137
LeftUpLeg  -41.781 19.1961 31.9791
LeftLeg  48.0564 -6.08665 -6.94398
LeftFoot  6.26482 2.22602 -15.0192
LeftToes  -1.18267e-011 3.61711e-011 9.57411e-011
1146
root  -38.1392 30.2477 -7.18821 -150.436 74.2373 -143.203
RightUpLeg  -4.61924 0.15235 -18.8734
RightLeg  63.6571 6.9849 14.524
RightFoot  -40.0219 5.47751 22.3062
RightToes  -8.3237e-009 0 -3.6325e-017
Spine  30.3522 0.655652 -13.132
Spine1  3.22048 -1.11987 -11.9733
HEad  -22.5509 -37.0625 1.87999
LeftShoulder1  0.32918 2.12904 -16.8968
LeftArm  -38.3964 -32.3452 -5.38322
LeftForeArm  28.9756 -48.6961 -10.6574
LeftHand  -0.0956598 2.86566 3.86593
RightShoulder  0.213873 -2.71033 21.7229
RightArm  27.4534 7.86139 43.2732
RightForeArm  24.0879 56.8537 15.2257
RightHand  -0.115646 4.23074 -1.74434
LeftUpLeg  -47.6395 19.5933 29.7124
LeftLeg  55.0045 -9.0983 -13.1834
LeftFoot  6.02506 1.2477 -8.33846
LeftToes  -1.18267e-011 3.61711e-011 9.57411e-011
1147
root  -36.6105 30.4253 -8.35974 -156.035 67.1005 -148.922
RightUpLeg  1.97235 -3.24183 -17.6121
RightLeg  61.1087 6.48106 12.0647
RightFoot  -34.2122 4.95586 25.3667
RightToes  -8.3237e-009 0 -3.6325e-017
Spine  28.7446 1.92655 -15.0674
Spine1  4.17698 -0.807715 -8.66473
HEad  -17.651 -35.7576 0.536195
LeftShoulder1  0.317821 2.26208 -19.0688
LeftArm  -30.4212 -46.44 -9.51252
LeftForeArm  28.4794 -41.0449 -7.88909
LeftHand  -0.0811391 1.98259 2.44064
RightShoulder  -0.0297732 -3.57637 24.0187
RightArm  28.4345 -3.96096 39.4301
RightForeArm  24.9353 57.7059 15.714
RightHand  -0.135669 4.21787 -1.89955
LeftUpLeg  -51.4278 17.2594 28.0533
LeftLeg  59.9081 -9.56947 -16.7544
LeftFoot  3.55171 0.434988 -3.4814
LeftToes  -1.18267e-011 3.61711e-011 9.57411e-011
1148
root  -35.3038 30.6722 -9.69387 -156.615 62.4806 -148.778
RightUpLeg  6.34017 -4.75227 -16.0423
RightLeg  59.434 5.06335 8.72823
RightFoot  -25.3273 3.04014 25.3905
RightToes  -8.3237e-009 0 -3.6325e-017
Spine  27.5895 2.20436 -14.9697
Spine1  5.6313 -0.176417 -8.58333
HEad  -17.6853 -32.2824 0.945342
LeftShoulder1  0.271853 2.5094 -20.8044
LeftArm  -23.672 -54.6817 -14.6059
LeftForeArm  35.043 -34.9003 -5.7589
LeftHand  -0.0486283 1.76005 1.24639
RightShoulder  -0.195442 -4.10372 25.0384
RightArm  29.7056 -10.5388 40.1353
RightForeArm  23.1514 54.402 13.866
RightHand  -0.028133 3.33165 -0.63323
LeftUpLeg  -52.1486 14.5557 28.4305
LeftLeg  64.0549 -8.63935 -18.0745
LeftFoot  -0.66179 0.0812494 -0.823819
LeftToes  -1.18267e-011 3.61711e-011 9.57411e-011
1149
root  -34.1438 31.0346 -11.0855 -156.334 59.5041 -148.664
RightUpLeg  7.57859 -6.12403 -15.1287
RightLeg  58.8551 3.28164 5.37722
RightFoot  -13.3682 0.29875 20.0857
RightToes  -8.3237e-009 0 -3.6325e-017
Spine  26.7914 1.77643 -14.9485
Spine1  4.57216 -0.335993 -8.87262
HEad  -18.3595 -28.4717 1.30069
LeftShoulder1  0.31947 2.37923 -22.0192
LeftArm  -19.1875 -56.1199 -18.4727
LeftForeArm  41.1576 -31.301 -4.57175
LeftHand  -0.0201539 2.18515 0.314084
RightShoulder  -0.218404 -4.1814 24.7106
RightArm  30.7101 -14.4219 43.3329
RightForeArm  22.5973 50.3011 11.7716
RightHand  0.0753175 3.55518 0.731879
LeftUpLeg  -51.9467 11.3 28.7912
LeftLeg  66.8031 -7.27963 -17.4192
LeftFoot  -5.18448 -0.0193352 0.84871
LeftToes  -1.18267e-011 3.61711e-011 9.57411e-011
